<svg width="27" height="29" viewBox="0 0 27 29" fill="none" xmlns="http://www.w3.org/2000/svg">
<path d="M25.8037 23.2C25.1299 21.6042 24.1523 20.1547 22.9251 18.9321C21.7016 17.7061 20.2523 16.7286 18.6572 16.0536C18.6429 16.0464 18.6287 16.0429 18.6144 16.0357C20.8394 14.4286 22.2858 11.8107 22.2858 8.85714C22.2858 3.96429 18.3215 0 13.4287 0C8.5358 0 4.57152 3.96429 4.57152 8.85714C4.57152 11.8107 6.01795 14.4286 8.24295 16.0393C8.22866 16.0464 8.21438 16.05 8.20009 16.0571C6.60009 16.7321 5.16438 17.7 3.93223 18.9357C2.70619 20.1592 1.72868 21.6085 1.05366 23.2036C0.390526 24.7652 0.0328819 26.4394 8.93071e-05 28.1357C-0.000863925 28.1738 0.00582189 28.2118 0.019753 28.2472C0.0336841 28.2827 0.0545785 28.3151 0.081205 28.3424C0.107832 28.3697 0.139652 28.3914 0.17479 28.4062C0.209928 28.421 0.247674 28.4286 0.285804 28.4286H2.42866C2.5858 28.4286 2.7108 28.3036 2.71438 28.15C2.7858 25.3929 3.89295 22.8107 5.85009 20.8536C7.87509 18.8286 10.5644 17.7143 13.4287 17.7143C16.2929 17.7143 18.9822 18.8286 21.0072 20.8536C22.9644 22.8107 24.0715 25.3929 24.1429 28.15C24.1465 28.3071 24.2715 28.4286 24.4287 28.4286H26.5715C26.6096 28.4286 26.6474 28.421 26.6825 28.4062C26.7177 28.3914 26.7495 28.3697 26.7761 28.3424C26.8027 28.3151 26.8236 28.2827 26.8376 28.2472C26.8515 28.2118 26.8582 28.1738 26.8572 28.1357C26.8215 26.4286 26.4679 24.7679 25.8037 23.2V23.2ZM13.4287 15C11.7894 15 10.2465 14.3607 9.0858 13.2C7.92509 12.0393 7.2858 10.4964 7.2858 8.85714C7.2858 7.21786 7.92509 5.675 9.0858 4.51429C10.2465 3.35357 11.7894 2.71429 13.4287 2.71429C15.0679 2.71429 16.6108 3.35357 17.7715 4.51429C18.9322 5.675 19.5715 7.21786 19.5715 8.85714C19.5715 10.4964 18.9322 12.0393 17.7715 13.2C16.6108 14.3607 15.0679 15 13.4287 15Z" fill="black"/>
</svg>
