<?xml version="1.0" encoding="UTF-8"?>
<!DOCTYPE svg PUBLIC "-//W3C//DTD SVG 1.1//EN" "http://www.w3.org/Graphics/SVG/1.1/DTD/svg11.dtd">
<svg version="1.1" xmlns="http://www.w3.org/2000/svg" xmlns:xlink="http://www.w3.org/1999/xlink" x="0" y="0" width="65" height="65" viewBox="0, 0, 65, 65">
  <g id="Layer_1">
    <path d="M32.5,65 C14.551,65 0,50.449 0,32.5 C-0,14.551 14.551,0 32.5,0 C50.449,0 65,14.551 65,32.5 C65,50.449 50.449,65 32.5,65 z" fill="#F6F6F4"/>
    <g>
      <path d="M52.5,32.5 C52.5,43.546 43.546,52.5 32.5,52.5 C21.454,52.5 12.5,43.546 12.5,32.5 C12.5,21.454 21.454,12.5 32.5,12.5 C43.546,12.5 52.5,21.454 52.5,32.5 z" fill="#FFCC4D"/>
      <path d="M32.5,35.833 C28.474,35.833 25.803,35.365 22.5,34.722 C21.746,34.577 20.278,34.722 20.278,36.944 C20.278,41.389 25.383,46.944 32.5,46.944 C39.616,46.944 44.722,41.389 44.722,36.944 C44.722,34.722 43.254,34.576 42.5,34.722 C39.197,35.365 36.526,35.833 32.5,35.833 z" fill="#664500"/>
      <path d="M22.5,36.944 C22.5,36.944 25.833,38.056 32.5,38.056 C39.167,38.056 42.5,36.944 42.5,36.944 C42.5,36.944 40.278,41.389 32.5,41.389 C24.722,41.389 22.5,36.944 22.5,36.944 z" fill="#FFFFFF"/>
      <path d="M29.924,17.403 L24.878,18.293 L22.278,13.568 C21.991,13.047 21.402,12.768 20.82,12.87 C20.234,12.973 19.779,13.438 19.688,14.024 L18.86,19.354 L13.813,20.244 C13.219,20.349 12.76,20.828 12.679,21.427 C12.598,22.026 12.913,22.608 13.46,22.868 L17.982,25.014 L17.151,30.361 C17.059,30.957 17.361,31.543 17.899,31.816 C18.098,31.916 18.311,31.963 18.523,31.963 C18.887,31.963 19.246,31.821 19.513,31.55 L23.415,27.593 L28.435,29.977 C28.98,30.234 29.629,30.113 30.042,29.674 C30.455,29.236 30.538,28.581 30.248,28.053 L27.639,23.311 L31.155,19.747 C31.58,19.317 31.677,18.661 31.397,18.126 C31.114,17.59 30.515,17.3 29.924,17.403 L29.924,17.403 z M35.076,17.403 L40.122,18.293 L42.722,13.568 C43.009,13.047 43.598,12.768 44.18,12.87 C44.764,12.973 45.22,13.438 45.311,14.024 L46.139,19.354 L51.186,20.244 C51.781,20.349 52.24,20.827 52.32,21.426 C52.4,22.024 52.085,22.607 51.539,22.867 L47.017,25.013 L47.848,30.36 C47.94,30.956 47.638,31.542 47.1,31.814 C46.901,31.914 46.688,31.962 46.475,31.962 C46.112,31.962 45.753,31.82 45.486,31.549 L41.583,27.592 L36.563,29.976 C36.019,30.233 35.37,30.112 34.957,29.673 C34.543,29.234 34.461,28.58 34.751,28.052 L37.36,23.311 L33.843,19.747 C33.419,19.317 33.322,18.661 33.602,18.126 C33.885,17.59 34.484,17.3 35.076,17.403 L35.076,17.403 z" fill="#E95F28"/>
    </g>
  </g>
</svg>
