<svg width="31" height="30" viewBox="0 0 31 30" fill="none" xmlns="http://www.w3.org/2000/svg">
<path d="M4.29607 4.00054H9.32822C10.2541 4.00054 10.9024 3.91332 10.9024 4.83923V3.16185C10.9024 2.23593 10.2541 1.48447 9.32822 1.48447H2.61868C0.941301 1.48447 -0.386348 3.26669 0.102609 5.67792C0.102609 5.67792 1.60471 13.5407 1.71038 14.0296C1.98967 15.3229 3.49176 16.5809 5.09953 16.5809H10.9351C11.8619 16.5809 10.9024 14.9908 10.9024 14.0648V12.3875C10.9024 13.3134 10.2541 14.0648 9.32822 14.0648H5.97345C5.04753 14.0648 4.43613 13.1909 4.29607 12.3875C4.15601 11.584 2.96758 6.23733 2.96758 6.23733C2.6883 4.62956 3.36931 4.00054 4.29607 4.00054ZM25.9444 4.00054H20.9122C19.9863 4.00054 18.4507 3.91332 18.4507 4.83923V3.16185C18.4507 2.23593 19.9863 1.48447 20.9122 1.48447H27.6218C29.2991 1.48447 30.6276 3.26669 30.1378 5.67792C30.1378 5.67792 28.7683 13.5776 28.6525 14.0648C28.3556 15.3229 26.9399 16.5809 25.2977 16.5809H19.3045C18.3785 16.5809 18.4507 14.9908 18.4507 14.0648V12.3875C18.4507 13.3134 19.9863 14.0648 20.9122 14.0648H24.267C25.1929 14.0648 25.8052 13.1909 25.9444 12.3875C26.0836 11.584 27.2729 6.23733 27.2729 6.23733C27.5513 4.62956 26.8711 4.00054 25.9444 4.00054V4.00054ZM17.4711 18.2583C17.4711 12.4227 15.1991 18.2583 15.1991 18.2583C15.1991 18.2583 12.683 12.4227 12.683 18.2583C12.683 24.0939 9.92285 26.6452 9.92285 26.6452H20.232C20.2312 26.6452 17.4711 24.0939 17.4711 18.2583Z" fill="#FFAC33"/>
<path d="M24.4247 5.32318C24.4247 11.0053 18.7467 20.5807 15.1991 20.5807C11.6506 20.5807 5.97345 11.0053 5.97345 5.32318C5.97345 0.966174 6.81214 0.0234843 8.48952 0.0234843C9.64189 0.0234843 13.5426 0.000839609 15.1991 0.000839609L21.0699 9.15548e-07C23.5164 -0.000837776 24.4247 0.573666 24.4247 5.32318V5.32318Z" fill="#FFCC4D"/>
<path d="M22.6441 27.4839C22.6441 28.4098 22.8345 29.1613 21.9086 29.1613H8.48952C7.56277 29.1613 7.54767 28.4098 7.54767 27.4839V26.6452C7.54767 25.7193 8.52391 24.9678 9.39782 24.9678H21.0699C21.9438 24.9678 22.6441 25.7193 22.6441 26.6452V27.4839V27.4839Z" fill="#C1694F"/>
<path d="M24.3215 28.8468C24.3215 29.4842 24.4599 30 23.2714 30H7.12663C6.04304 30 5.87027 29.4842 5.87027 28.8468V28.6371C5.87027 27.9997 6.48922 27.4839 7.12663 27.4839H23.2714C23.908 27.4839 24.3215 27.9997 24.3215 28.6371V28.8468V28.8468Z" fill="#C1694F"/>
</svg>
