<svg width="28" height="28" viewBox="0 0 28 28" fill="none" xmlns="http://www.w3.org/2000/svg">
<g clip-path="url(#clip0_5_413)">
<path d="M22.5231 1.54418C22.2325 1.51672 22.4499 1.04773 22.3973 0.840689C22.4693 0.0857251 22.411 -0.0744188 21.6274 0.026243C19.0857 0.0193797 16.5429 0.026243 14 0.026243C11.4572 0.026243 8.9143 0.017092 6.37258 0.026243C5.58902 -0.072131 5.53068 0.0857251 5.60275 0.840689C5.55013 1.04773 5.76747 1.51672 5.47692 1.54418C2.4502 -2.43425 -1.67464 2.27741 0.713789 5.90695C1.76387 7.85499 3.43738 9.31802 5.09715 10.7284C6.26849 11.7282 9.99412 14.4563 9.99412 14.4563C11.7957 15.6734 12.8767 16.2156 13.2027 17.9646C13.3571 18.635 13.157 22.9119 12.7715 24.0981C12.362 25.4468 12.5427 25.1459 11.3634 25.5646C9.68985 26.1606 9.33524 25.8266 9.48967 27.7952H18.5264C18.6808 25.8266 18.3262 26.1606 16.6527 25.5646C15.4745 25.1459 15.6541 25.4502 15.2446 24.0981C14.8591 22.9119 14.6589 18.635 14.8133 17.9646C15.1393 16.2156 16.2203 15.6769 18.0219 14.4563C18.0219 14.4563 21.7475 11.7282 22.9189 10.7284C24.5626 9.31802 26.2361 7.85499 27.2885 5.90695C29.6747 2.27741 25.5509 -2.43425 22.5231 1.54418ZM3.29096 7.20297C-2.48909 1.05231 6.10263 -0.497656 4.18205 3.94405C3.40192 5.60268 5.47692 5.39335 5.79607 3.45561C6.18842 6.39653 7.25452 8.72777 8.38811 11.3576C8.36523 11.3004 4.85351 8.6374 3.29096 7.20297ZM24.709 7.20297C23.1465 8.6374 19.6348 11.2981 19.613 11.3576C20.7466 8.72663 21.8127 6.39653 22.2051 3.45561C22.5242 5.39335 24.5992 5.60268 23.8203 3.94405C21.8974 -0.497656 30.4914 1.05231 24.709 7.20297Z" fill="white"/>
</g>
<defs>
<clipPath id="clip0_5_413">
<rect width="28" height="27.7964" fill="white"/>
</clipPath>
</defs>
</svg>
