<?xml version="1.0" encoding="UTF-8"?>
<!DOCTYPE svg PUBLIC "-//W3C//DTD SVG 1.1//EN" "http://www.w3.org/Graphics/SVG/1.1/DTD/svg11.dtd">
<svg version="1.1" xmlns="http://www.w3.org/2000/svg" xmlns:xlink="http://www.w3.org/1999/xlink" x="0" y="0" width="50" height="50" viewBox="0, 0, 50, 50">
  <g id="Layer_1">
    <path d="M25,50 C11.193,50 -0,38.807 -0,25 C-0,11.193 11.193,-0 25,-0 C38.807,-0 50,11.193 50,25 C50,38.807 38.807,50 25,50 z" fill="#F6F6F4"/>
    <g>
      <path d="M25,40 C33.284,40 40,33.284 40,25 C40,16.716 33.284,10 25,10 C16.716,10 10,16.716 10,25 C10,33.284 16.716,40 25,40 z" fill="#DD2E44"/>
      <path d="M25,36.25 C31.213,36.25 36.25,31.213 36.25,25 C36.25,18.787 31.213,13.75 25,13.75 C18.787,13.75 13.75,18.787 13.75,25 C13.75,31.213 18.787,36.25 25,36.25 z" fill="#FFFFFF"/>
      <path d="M25,33.333 C29.602,33.333 33.333,29.602 33.333,25 C33.333,20.398 29.602,16.667 25,16.667 C20.398,16.667 16.667,20.398 16.667,25 C16.667,29.602 20.398,33.333 25,33.333 z" fill="#DD2E44"/>
      <path d="M25,30 C27.761,30 30,27.761 30,25 C30,22.239 27.761,20 25,20 C22.239,20 20,22.239 20,25 C20,27.761 22.239,30 25,30 z" fill="#FFFFFF"/>
      <path d="M25,27.5 C26.381,27.5 27.5,26.381 27.5,25 C27.5,23.619 26.381,22.5 25,22.5 C23.619,22.5 22.5,23.619 22.5,25 C22.5,26.381 23.619,27.5 25,27.5 z" fill="#DD2E44"/>
      <path d="M25.2,25.235 L36.153,35.03 C36.153,35.03 33.947,37.843 29.578,39.287 L24.649,25.35 L25.2,25.235 L25.2,25.235 z" fill="#000000" opacity="0.2"/>
      <path d="M25.245,25.833 C25.032,25.833 24.821,25.753 24.658,25.59 C24.334,25.266 24.334,24.742 24.658,24.417 L25.128,23.948 C25.452,23.624 25.976,23.624 26.301,23.948 C26.624,24.272 26.624,24.797 26.301,25.121 L25.831,25.59 C25.669,25.753 25.458,25.833 25.245,25.833 z" fill="#FFAC33"/>
      <path d="M30.013,15.818 C29.677,17.55 30.013,19.727 30.013,19.727 L35.892,13.57 C36.134,12.358 35.452,10.293 34.46,10.038 C33.468,9.783 31.061,10.707 30.013,15.818 z M34.182,19.987 C32.45,20.323 30.273,19.987 30.273,19.987 L36.43,14.108 C37.642,13.866 39.707,14.548 39.962,15.54 C40.217,16.532 39.292,18.939 34.182,19.987 L34.182,19.987 z" fill="#55ACEE"/>
      <path d="M37.332,13.738 L27.647,24.656 C27.345,24.958 26.252,25.391 25.555,24.694 C24.858,23.997 25.206,22.961 25.507,22.658 L36.513,12.918 C36.513,12.918 37.076,12.388 37.478,12.791 C37.881,13.193 37.332,13.738 37.332,13.738 L37.332,13.738 z" fill="#3A87C2"/>
    </g>
  </g>
</svg>
