<svg width="31" height="30" viewBox="0 0 31 30" fill="none" xmlns="http://www.w3.org/2000/svg">
<path d="M15.0622 30C23.3807 30 30.1243 27.9919 30.1243 25.5148C30.1243 23.0377 23.3807 21.0297 15.0622 21.0297C6.74355 21.0297 0 23.0377 0 25.5148C0 27.9919 6.74355 30 15.0622 30Z" fill="#3B88C3"/>
<path d="M28.2934 23.8396C28.2934 25.1919 26.2014 26.0044 16.1751 26.0044C7.03317 26.0044 4.78473 25.1919 4.78473 23.8396C4.78473 22.4874 9.54018 21.3912 16.1751 21.3912C22.8099 21.3912 28.2934 22.4874 28.2934 23.8396V23.8396Z" fill="#88C9F9"/>
<path d="M5.85751 23.5986C5.85751 22.7618 6.6943 19.4147 15.0622 19.4147C25.1036 19.4147 27.614 22.7618 27.614 23.5986C27.614 24.4354 27.614 25.2722 15.8989 25.2722C5.85751 25.2722 5.85751 24.4354 5.85751 23.5986Z" fill="#F4900C"/>
<path d="M5.85751 9.37323C8.16824 9.37323 10.0414 7.50002 10.0414 5.1893C10.0414 2.87858 8.16824 1.00537 5.85751 1.00537C3.54679 1.00537 1.67358 2.87858 1.67358 5.1893C1.67358 7.50002 3.54679 9.37323 5.85751 9.37323Z" fill="#FFCC4D"/>
<path d="M5.85749 8.53645C7.70607 8.53645 9.20463 7.03788 9.20463 5.18931C9.20463 3.34073 7.70607 1.84216 5.85749 1.84216C4.00891 1.84216 2.51035 3.34073 2.51035 5.18931C2.51035 7.03788 4.00891 8.53645 5.85749 8.53645Z" fill="#FFAC33"/>
<path d="M22.5505 12.0651C22.5179 11.584 22.4685 11.1187 22.4024 10.6744C22.3229 10.1422 22.2234 9.64095 22.1121 9.17068C22.01 8.73806 21.8987 8.33473 21.7841 7.96403C21.6125 7.40673 21.4351 6.9239 21.2745 6.5281C20.959 5.75073 20.7105 5.3064 20.7105 5.3064L18.549 5.58505C18.549 5.58505 18.7984 6.10553 19.0687 7.12557C19.1783 7.53978 19.2904 8.03767 19.3917 8.6184C19.4427 8.91211 19.4904 9.22423 19.5339 9.55978C19.5942 10.0267 19.6436 10.5363 19.6787 11.0852C19.6988 11.3949 19.713 11.7179 19.723 12.0542C19.7264 12.1764 19.7323 12.2944 19.7339 12.4199C19.7398 12.8124 19.7122 13.2115 19.6636 13.6098C19.6193 13.9688 19.5549 14.3261 19.477 14.6801C19.3657 15.1872 19.2293 15.6859 19.0762 16.1612C18.9515 16.5461 18.8185 16.9151 18.6846 17.2624C18.4787 17.7954 18.2721 18.2741 18.093 18.6741C17.7934 19.3418 17.5725 19.787 17.5725 19.8799C17.5725 20.1736 17.7817 20.7225 19.2461 21.0882C21.5355 21.6605 21.7564 20.7166 21.7564 20.7166C21.7564 20.7166 21.902 20.2748 22.0711 19.4054C22.1547 18.9761 22.2435 18.4456 22.3246 17.803C22.3732 17.4189 22.4183 16.9963 22.4568 16.5369C22.4978 16.0583 22.5313 15.5395 22.5556 14.978C22.5731 14.5529 22.584 14.0985 22.5882 13.6266C22.5899 13.4793 22.5932 13.337 22.5932 13.1856C22.5932 12.8015 22.5757 12.43 22.5505 12.0651V12.0651Z" fill="#C1694F"/>
<path d="M20.354 17.8348C19.5147 17.6884 18.9791 17.444 18.6854 17.2608C18.4796 17.7938 18.2729 18.2724 18.0938 18.6724C18.6419 18.9703 19.3381 19.208 20.0929 19.3385C20.5289 19.4146 20.9615 19.4523 21.3673 19.4523C21.615 19.4523 21.8476 19.4331 22.0711 19.4046C22.1547 18.9753 22.2434 18.4448 22.3246 17.8022C22.0585 17.8967 21.3983 18.0172 20.354 17.8348V17.8348ZM20.9883 15.0383C20.3339 14.9738 19.831 14.8299 19.4779 14.6784C19.3666 15.1855 19.2302 15.6843 19.077 16.1595C19.5942 16.3545 20.2025 16.4951 20.8393 16.5579C21.0962 16.583 21.3506 16.5955 21.5991 16.5955C21.8995 16.5955 22.1849 16.5721 22.4577 16.5361C22.4987 16.0575 22.5321 15.5386 22.5564 14.9772C22.1798 15.0592 21.6527 15.1044 20.9883 15.0383V15.0383ZM21.1732 13.763C21.6652 13.763 22.148 13.7136 22.589 13.6266C22.5899 13.4793 22.5932 13.3371 22.5932 13.1856C22.5932 12.8024 22.5756 12.4308 22.5505 12.0652C22.2342 12.148 21.7815 12.2275 21.1431 12.2367C20.4946 12.2342 20.0385 12.1438 19.7222 12.0534C19.7255 12.1756 19.7314 12.2936 19.7331 12.4191C19.7389 12.8116 19.7113 13.2107 19.6628 13.609C20.1188 13.7053 20.6234 13.7605 21.1355 13.763H21.1732V13.763ZM21.0242 11.0242C21.5179 10.9531 21.9757 10.825 22.4033 10.6744C22.3238 10.1422 22.2242 9.64098 22.1129 9.17071C21.8167 9.29288 21.3958 9.42844 20.8075 9.51295C20.2628 9.59161 19.8477 9.58659 19.5339 9.55898C19.5942 10.0259 19.6435 10.5355 19.6787 11.0844C19.7699 11.0878 19.8519 11.102 19.9456 11.102C20.2971 11.102 20.6627 11.0761 21.0242 11.0242V11.0242ZM21.7849 7.96323C21.6125 7.40676 21.4351 6.92394 21.2744 6.52814C21.0092 6.66119 20.6736 6.80093 20.2351 6.92226C19.7599 7.05448 19.3758 7.10719 19.0678 7.1256C19.1775 7.53981 19.2896 8.0377 19.3908 8.61843C19.7983 8.57743 20.2184 8.51132 20.6435 8.39333C21.0502 8.28037 21.4276 8.12891 21.7849 7.96323V7.96323Z" fill="#D99E82"/>
<path d="M28.9101 2.42204C28.8834 2.38689 26.2308 -1.16192 22.7907 0.394506C21.2452 1.09322 20.2486 2.23544 19.8879 3.71069C19.2151 2.7693 18.1926 2.17184 16.8387 1.93085C13.1392 1.27146 10.9042 5.38091 10.8824 5.42192C10.8498 5.48217 10.864 5.5558 10.9151 5.60099C10.9669 5.64534 11.0414 5.64869 11.0966 5.60936C11.1134 5.59681 12.8012 4.41526 15.6119 4.9165C18.4846 5.42777 20.4988 5.92985 20.5189 5.93487C20.5314 5.93738 20.5423 5.93905 20.5548 5.93905C20.595 5.93905 20.6343 5.92232 20.6628 5.89219C20.6812 5.87211 22.5899 3.82115 24.3446 3.02787C26.942 1.85302 28.7135 2.63291 28.7294 2.64128C28.7896 2.66889 28.8616 2.65215 28.9043 2.60027C28.947 2.54923 28.9495 2.47643 28.9101 2.42204V2.42204Z" fill="#3E721D"/>
<path d="M26.0483 4.47887C23.4258 3.09399 21.3874 3.7835 20.1214 4.62447C18.6043 4.33076 15.7692 4.32574 13.3668 7.40595C10.4172 11.1866 13.0045 15.901 13.0304 15.9487C13.0564 15.9956 13.1057 16.0232 13.1585 16.0232L13.176 16.0223C13.2354 16.0148 13.284 15.9721 13.299 15.9152C13.3082 15.8826 14.217 12.5957 16.5148 9.83179C17.7708 8.3214 19.2704 6.9248 20.3255 6.00517C21.3883 6.18173 22.9497 6.57251 24.4835 7.42938C27.4734 9.10128 28.8449 11.9305 28.8582 11.9589C28.885 12.0141 28.9428 12.0526 29.0064 12.0417C29.0683 12.0351 29.1193 11.9899 29.1327 11.9296C29.1444 11.8769 30.2975 6.72313 26.0483 4.47887V4.47887Z" fill="#5C913B"/>
</svg>
