<svg width="27" height="30" viewBox="0 0 27 30" fill="none" xmlns="http://www.w3.org/2000/svg">
<path d="M22.4575 3.20007H24.1291V4.03757H22.4575V3.20007Z" fill="#66757F"/>
<path d="M0 9.90002V26.65C0 28.5 1.49996 30 3.34999 30H23.4499C25.3 30 26.7999 28.5 26.7999 26.65V9.90002H0Z" fill="#CCD6DD"/>
<path d="M23.4499 3.20007H3.34999C1.49996 3.20007 0 4.70003 0 6.55006V10.7376H26.7999V6.55006C26.7999 4.70003 25.3 3.20007 23.4499 3.20007Z" fill="#DD2E44"/>
<path d="M5.72513 7.16228C5.13721 7.16228 4.66068 6.60451 4.66068 5.91525C4.66068 5.22682 5.13721 4.66821 5.72513 4.66821C6.31222 4.66821 6.78876 5.22682 6.78876 5.91525C6.78876 6.60367 6.31222 7.16228 5.72513 7.16228ZM10.7501 7.16228C10.1622 7.16228 9.68566 6.60451 9.68566 5.91525C9.68566 5.22682 10.1622 4.66821 10.7501 4.66821C11.3372 4.66821 11.8137 5.22682 11.8137 5.91525C11.8137 6.60367 11.3372 7.16228 10.7501 7.16228V7.16228ZM15.7751 7.16228C15.1872 7.16228 14.7106 6.60451 14.7106 5.91525C14.7106 5.22682 15.1872 4.66821 15.7751 4.66821C16.3622 4.66821 16.8396 5.22682 16.8396 5.91525C16.8387 6.60367 16.3622 7.16228 15.7751 7.16228ZM20.8001 7.16228C20.2122 7.16228 19.7356 6.60451 19.7356 5.91525C19.7356 5.22682 20.2122 4.66821 20.8001 4.66821C21.3872 4.66821 21.8645 5.22682 21.8645 5.91525C21.8637 6.60367 21.3872 7.16228 20.8001 7.16228Z" fill="#292F33"/>
<path d="M21.2013 0C20.1318 0 19.2055 0.671673 18.6938 1.64987C18.1863 0.69261 17.2558 0 16.1763 0C15.1068 0 14.1805 0.671673 13.6688 1.64987C13.1613 0.69261 12.2308 0 11.1513 0C10.0818 0 9.15554 0.671673 8.64383 1.64987C8.1363 0.69261 7.20584 0 6.12631 0C4.50659 0 3.19507 1.52341 3.19507 3.35418C3.19507 4.9069 4.07025 6.17738 5.3466 6.64219C5.98226 6.87251 6.3717 6.26783 6.31726 5.78292C6.2712 5.38092 6.00404 5.11879 5.70672 4.93035C5.30054 4.67324 4.86923 4.08615 4.86923 3.35837C4.86923 2.43377 5.43119 1.60381 6.12547 1.60381C6.81976 1.60381 7.38172 2.36174 7.38172 3.19924H8.23262C8.2301 3.25117 8.21922 3.30058 8.21922 3.35334C8.21922 4.90606 9.0944 6.17654 10.3707 6.64136C11.0064 6.87167 11.3958 6.26699 11.3414 5.78208C11.2953 5.38092 11.0282 5.11879 10.7309 4.93035C10.3247 4.67324 9.89337 4.08615 9.89337 3.35837C9.89337 2.43377 10.4553 1.60381 11.1496 1.60381C11.8439 1.60381 12.4075 2.36258 12.4075 3.20008H13.2584C13.2559 3.252 13.245 3.30142 13.245 3.35418C13.245 4.9069 14.1202 6.17738 15.3966 6.64219C16.0322 6.87251 16.4217 6.26783 16.3672 5.78292C16.3212 5.38176 16.054 5.11962 15.7567 4.93119C15.3505 4.67407 14.9192 4.08699 14.9192 3.3592C14.9192 2.43461 15.4812 1.60465 16.1754 1.60465C16.8697 1.60465 17.4325 2.36258 17.4325 3.20008H18.2834C18.2809 3.252 18.27 3.30142 18.27 3.35418C18.27 4.9069 19.1452 6.17738 20.4216 6.64219C21.0572 6.87251 21.4467 6.26783 21.3922 5.78292C21.3462 5.38176 21.079 5.11962 20.7817 4.93119C20.3755 4.67407 19.9442 4.08699 19.9442 3.3592C19.9442 2.43461 20.5061 1.60465 21.2004 1.60465C21.8947 1.60465 22.4575 2.36258 22.4575 3.20008H24.1292C24.1116 1.52508 22.8093 0 21.2013 0Z" fill="#66757F"/>
<path d="M7.53746 12.4125H10.8875V15.7625H7.53746V12.4125ZM11.725 12.4125H15.0749V15.7625H11.725V12.4125ZM15.9124 12.4125H19.2624V15.7625H15.9124V12.4125ZM20.0999 12.4125H23.4499V15.7625H20.0999V12.4125ZM3.34998 16.6H6.69997V19.95H3.34998V16.6ZM7.53746 16.6H10.8875V19.95H7.53746V16.6ZM11.725 16.6H15.0749V19.95H11.725V16.6ZM15.9124 16.6H19.2624V19.95H15.9124V16.6ZM20.0999 16.6H23.4499V19.95H20.0999V16.6ZM3.34998 20.7875H6.69997V24.1375H3.34998V20.7875ZM7.53746 20.7875H10.8875V24.1375H7.53746V20.7875ZM11.725 20.7875H15.0749V24.1375H11.725V20.7875ZM15.9124 20.7875H19.2624V24.1375H15.9124V20.7875ZM20.0999 20.7875H23.4499V24.1375H20.0999V20.7875ZM3.34998 24.975H6.69997V28.325H3.34998V24.975ZM7.53746 24.975H10.8875V28.325H7.53746V24.975ZM11.725 24.975H15.0749V28.325H11.725V24.975Z" fill="white"/>
</svg>
