<?xml version="1.0" encoding="UTF-8"?>
<!DOCTYPE svg PUBLIC "-//W3C//DTD SVG 1.1//EN" "http://www.w3.org/Graphics/SVG/1.1/DTD/svg11.dtd">
<svg version="1.1" xmlns="http://www.w3.org/2000/svg" xmlns:xlink="http://www.w3.org/1999/xlink" x="0" y="0" width="50" height="30" viewBox="0, 0, 50, 30">
  <g id="Layer_1">
    <path d="M43.387,22.864 L43.387,20.63 C44.489,19.458 46.599,17.341 47.124,14.629 C47.281,14.719 47.185,14.777 47.359,14.777 C48.195,14.777 48.744,13.658 48.744,12.277 C48.744,10.918 48.02,9.818 47.202,9.783 C47.359,9.196 47.435,8.411 47.435,7.403 C47.435,4.039 44.625,0 38.338,0 C32.752,0 29.251,4.039 29.251,7.403 C29.251,8.379 29.308,9.18 29.408,9.801 C28.64,9.92 28.033,10.976 28.033,12.276 C28.033,13.657 28.71,14.776 29.547,14.776 C29.72,14.776 29.471,14.718 29.626,14.628 C30.152,17.341 32.364,19.457 33.466,20.63 L33.466,22.732 C29.057,23.292 25.751,25.722 25.751,28.154 L25.751,29.076 C25.751,30 26.658,30 27.552,30 L48.197,30 C49.093,30 50,30 50,29.076 L50,28.154 C50,25.877 46.693,23.606 43.387,22.864 L43.387,22.864 z" fill="#F6F6F4"/>
    <path d="M17.636,22.864 L17.636,20.63 C18.738,19.458 20.848,17.341 21.374,14.629 C21.53,14.719 21.434,14.777 21.608,14.777 C22.444,14.777 22.993,13.658 22.993,12.277 C22.993,10.918 22.27,9.818 21.451,9.783 C21.608,9.196 21.685,8.411 21.685,7.403 C21.685,4.039 18.875,-0 12.588,-0 C7,-0 3.501,4.039 3.501,7.403 C3.501,8.379 3.557,9.18 3.657,9.8 C2.889,9.92 2.283,10.976 2.283,12.276 C2.283,13.657 2.96,14.776 3.796,14.776 C3.969,14.776 3.72,14.718 3.875,14.628 C4.401,17.341 6.613,19.456 7.716,20.63 L7.716,22.732 C3.307,23.291 0,25.722 0,28.154 L0,29.077 C0,30 0.907,30 1.801,30 L22.446,30 C23.342,30 24.249,30 24.249,29.076 L24.249,28.153 C24.249,25.877 20.943,23.606 17.636,22.864 L17.636,22.864 z" fill="#E8E4E4" fill-opacity="0.92"/>
  </g>
</svg>
