<svg width="24" height="30" viewBox="0 0 24 30" fill="none" xmlns="http://www.w3.org/2000/svg">
<path d="M11.8182 0C6.79726 0 2.72726 4.07 2.72726 9.09091V18.1818H6.36363V9.09091C6.36363 6.07909 8.80545 3.63636 11.8182 3.63636C14.8309 3.63636 17.2727 6.07909 17.2727 9.09091V18.1818H20.9091V9.09091C20.9091 4.07 16.8391 0 11.8182 0Z" fill="#AAB8C2"/>
<path d="M23.6364 26.3636C23.6364 28.3718 22.0082 30 20 30H3.63636C1.62818 30 0 28.3718 0 26.3636V15.4545C0 13.4464 1.62818 11.8182 3.63636 11.8182H20C22.0082 11.8182 23.6364 13.4464 23.6364 15.4545V26.3636Z" fill="#FFAC33"/>
</svg>
