<svg width="30" height="30" viewBox="0 0 30 30" fill="none" xmlns="http://www.w3.org/2000/svg">
<circle cx="15" cy="15" r="15" fill="white"/>
<path d="M15 30C18.978 30 22.794 28.42 25.607 25.607C28.42 22.794 30 18.978 30 15C30 11.022 28.42 7.206 25.607 4.393C22.794 1.58 18.978 0 15 0C11.022 0 7.206 1.58 4.393 4.393C1.58 7.206 0 11.022 0 15C0 18.978 1.58 22.794 4.393 25.607C7.206 28.42 11.022 30 15 30ZM16.744 12.352L14.869 21.174C14.738 21.812 14.923 22.174 15.439 22.174C15.802 22.174 16.352 22.042 16.725 21.712L16.56 22.493C16.022 23.141 14.835 23.614 13.813 23.614C12.495 23.614 11.934 22.823 12.298 21.141L13.682 14.638C13.802 14.089 13.693 13.89 13.144 13.757L12.298 13.605L12.452 12.891L16.746 12.352H16.744ZM15 10.312C14.503 10.312 14.026 10.115 13.674 9.763C13.323 9.412 13.125 8.935 13.125 8.438C13.125 7.94 13.323 7.463 13.674 7.112C14.026 6.76 14.503 6.562 15 6.562C15.497 6.562 15.974 6.76 16.326 7.112C16.677 7.463 16.875 7.94 16.875 8.438C16.875 8.935 16.677 9.412 16.326 9.763C15.974 10.115 15.497 10.312 15 10.312Z" fill="#007AFF"/>
</svg>
