<?xml version="1.0" encoding="UTF-8"?>
<!DOCTYPE svg PUBLIC "-//W3C//DTD SVG 1.1//EN" "http://www.w3.org/Graphics/SVG/1.1/DTD/svg11.dtd">
<svg version="1.1" xmlns="http://www.w3.org/2000/svg" xmlns:xlink="http://www.w3.org/1999/xlink" x="0" y="0" width="30" height="30" viewBox="0, 0, 30, 30">
  <defs>
    <clipPath id="Clip_1">
      <path d="M0,0 L30,0 L30,30 L0,30 z"/>
    </clipPath>
  </defs>
  <g id="Layer_1">
    <g clip-path="url(#Clip_1)">
      <path d="M15,28.125 C11.519,28.125 8.181,26.742 5.719,24.281 C3.258,21.819 1.875,18.481 1.875,15 C1.875,11.519 3.258,8.181 5.719,5.719 C8.181,3.258 11.519,1.875 15,1.875 C18.481,1.875 21.819,3.258 24.281,5.719 C26.742,8.181 28.125,11.519 28.125,15 C28.125,18.481 26.742,21.819 24.281,24.281 C21.819,26.742 18.481,28.125 15,28.125 z M15,30 C18.978,30 22.794,28.42 25.607,25.607 C28.42,22.794 30,18.978 30,15 C30,11.022 28.42,7.206 25.607,4.393 C22.794,1.58 18.978,0 15,0 C11.022,0 7.206,1.58 4.393,4.393 C1.58,7.206 0,11.022 0,15 C0,18.978 1.58,22.794 4.393,25.607 C7.206,28.42 11.022,30 15,30 L15,30 z" fill="#007AFF"/>
      <path d="M16.744,12.352 L12.45,12.891 L12.296,13.603 L13.14,13.759 C13.691,13.89 13.8,14.089 13.68,14.638 L12.296,21.141 C11.932,22.823 12.493,23.614 13.811,23.614 C14.833,23.614 16.02,23.141 16.558,22.492 L16.723,21.712 C16.348,22.042 15.801,22.174 15.437,22.174 C14.921,22.174 14.734,21.812 14.867,21.174 L16.744,12.352 z M16.875,8.437 C16.875,8.935 16.677,9.412 16.326,9.763 C15.974,10.115 15.497,10.312 15,10.312 C14.503,10.312 14.026,10.115 13.674,9.763 C13.323,9.412 13.125,8.935 13.125,8.437 C13.125,7.94 13.323,7.463 13.674,7.112 C14.026,6.76 14.503,6.562 15,6.562 C15.497,6.562 15.974,6.76 16.326,7.112 C16.677,7.463 16.875,7.94 16.875,8.437 z" fill="#007AFF"/>
    </g>
  </g>
</svg>
