<?xml version="1.0" encoding="UTF-8"?>
<!DOCTYPE svg PUBLIC "-//W3C//DTD SVG 1.1//EN" "http://www.w3.org/Graphics/SVG/1.1/DTD/svg11.dtd">
<svg version="1.1" xmlns="http://www.w3.org/2000/svg" xmlns:xlink="http://www.w3.org/1999/xlink" x="0" y="0" width="30" height="30" viewBox="0, 0, 30, 30">
  <g id="Layer_1">
    <path d="M15,30 C18.978,30 22.794,28.42 25.607,25.607 C28.42,22.794 30,18.978 30,15 C30,11.022 28.42,7.206 25.607,4.393 C22.794,1.58 18.978,0 15,0 C11.022,0 7.206,1.58 4.393,4.393 C1.58,7.206 0,11.022 0,15 C0,18.978 1.58,22.794 4.393,25.607 C7.206,28.42 11.022,30 15,30 L15,30 z M16.744,12.352 L14.869,21.174 C14.738,21.812 14.923,22.174 15.439,22.174 C15.802,22.174 16.352,22.042 16.725,21.712 L16.56,22.493 C16.022,23.141 14.835,23.614 13.813,23.614 C12.495,23.614 11.934,22.823 12.298,21.141 L13.682,14.638 C13.802,14.089 13.693,13.89 13.144,13.757 L12.298,13.605 L12.452,12.891 L16.746,12.352 L16.744,12.352 z M15,10.312 C14.503,10.312 14.026,10.115 13.674,9.763 C13.323,9.412 13.125,8.935 13.125,8.438 C13.125,7.94 13.323,7.463 13.674,7.112 C14.026,6.76 14.503,6.562 15,6.562 C15.497,6.562 15.974,6.76 16.326,7.112 C16.677,7.463 16.875,7.94 16.875,8.438 C16.875,8.935 16.677,9.412 16.326,9.763 C15.974,10.115 15.497,10.312 15,10.312 L15,10.312 z" fill="#007AFF"/>
  </g>
</svg>
