<svg width="30" height="30" viewBox="0 0 30 30" fill="none" xmlns="http://www.w3.org/2000/svg">
<circle cx="15" cy="15" r="14" stroke="white" stroke-width="2"/>
<path d="M14.7792 7.02302C14.8139 7.00767 14.9697 7 15.2468 7C15.5411 7.0307 15.7316 7.05372 15.8182 7.06907C16.4935 7.25324 16.9784 7.60624 17.2727 8.12806C17.4286 8.41966 17.5065 8.7036 17.5065 8.97986C17.5065 9.27146 17.4286 9.5554 17.2727 9.83166C16.9784 10.3688 16.4935 10.7295 15.8182 10.9137C15.6623 10.9444 15.4459 10.9597 15.1688 10.9597C14.8745 10.9597 14.658 10.9444 14.5195 10.9137C13.8268 10.7295 13.3333 10.3688 13.039 9.83166C12.9004 9.58609 12.8312 9.30216 12.8312 8.97986C12.8312 8.76499 12.8398 8.61151 12.8571 8.51943C12.9437 8.24317 13.0996 7.98225 13.3247 7.73669C13.6883 7.353 14.1732 7.11511 14.7792 7.02302ZM14.5974 12.7324C16.329 12.671 17.1602 12.6403 17.0909 12.6403H17.2468V16.9914V21.3424H18.0519H18.8571V22.1712V23H18.6234L16.961 22.954C16.0087 22.9386 15.0216 22.9386 14 22.954L12.2338 23H12V22.1712V21.3424H12.9091H13.7922V18.1885C13.7922 16.0552 13.7835 14.9578 13.7662 14.8964C13.697 14.7122 13.5844 14.6048 13.4286 14.5741C13.1861 14.5127 12.8398 14.482 12.3896 14.482H12.0779V13.6532V12.8245H12.1558L14.5974 12.7324Z" fill="white"/>
</svg>
