<svg width="23" height="28" viewBox="0 0 23 28" fill="none" xmlns="http://www.w3.org/2000/svg">
<path d="M11.0303 0C6.34414 0 2.54547 3.79867 2.54547 8.48485V16.9697H5.93941V8.48485C5.93941 5.67382 8.21844 3.39394 11.0303 3.39394C13.8422 3.39394 16.1212 5.67382 16.1212 8.48485V16.9697H19.5152V8.48485C19.5152 3.79867 15.7165 0 11.0303 0Z" fill="#AAB8C2"/>
<path d="M22.0606 24.606C22.0606 26.4803 20.541 28 18.6667 28H3.39394C1.51964 28 0 26.4803 0 24.606V14.4242C0 12.5499 1.51964 11.0303 3.39394 11.0303H18.6667C20.541 11.0303 22.0606 12.5499 22.0606 14.4242V24.606Z" fill="#FFAC33"/>
</svg>
