<?xml version="1.0" encoding="UTF-8"?>
<!DOCTYPE svg PUBLIC "-//W3C//DTD SVG 1.1//EN" "http://www.w3.org/Graphics/SVG/1.1/DTD/svg11.dtd">
<svg version="1.1" xmlns="http://www.w3.org/2000/svg" xmlns:xlink="http://www.w3.org/1999/xlink" x="0" y="0" width="28" height="28" viewBox="0, 0, 28, 28">
  <defs>
    <clipPath id="Clip_1">
      <path d="M0,7 L28,7 L28,20.517 L0,20.517 z"/>
    </clipPath>
  </defs>
  <g id="Layer_1">
    <g clip-path="url(#Clip_1)">
      <path d="M18.169,17.445 C18.169,19.141 16.204,20.517 13.781,20.517 C11.358,20.517 9.391,19.141 9.391,17.445 C9.391,15.749 11.357,14.379 13.781,14.379 C16.205,14.379 18.169,15.755 18.169,17.451" fill="#000000"/>
      <path d="M18.17,10.072 C18.17,11.768 16.204,13.144 13.781,13.144 C11.358,13.144 9.391,11.768 9.391,10.072 C9.391,8.376 11.357,7.005 13.781,7.005 C16.205,7.005 18.17,8.38 18.17,10.076" fill="#000000"/>
      <path d="M28,13.759 C28,15.454 26.035,16.83 23.611,16.83 C21.187,16.83 19.223,15.454 19.223,13.759 C19.223,12.064 21.182,10.687 23.611,10.687 C26.04,10.687 28,12.062 28,13.759 z" fill="#000000"/>
      <path d="M8.777,13.759 C8.777,15.454 6.818,16.83 4.389,16.83 C1.96,16.83 0,15.454 0,13.759 C0,12.064 1.965,10.692 4.389,10.692 C6.813,10.692 8.777,12.066 8.777,13.764" fill="#000000"/>
    </g>
  </g>
</svg>
