<?xml version="1.0" encoding="UTF-8"?>
<!DOCTYPE svg PUBLIC "-//W3C//DTD SVG 1.1//EN" "http://www.w3.org/Graphics/SVG/1.1/DTD/svg11.dtd">
<svg version="1.1" xmlns="http://www.w3.org/2000/svg" xmlns:xlink="http://www.w3.org/1999/xlink" x="0" y="0" width="30" height="21" viewBox="0, 0, 30, 21">
  <g id="Layer_24" transform="translate(-0, -1.5)">
    <g>
      <path d="M13.721,1.5 C15.648,1.5 17.209,3.007 17.209,4.866 L17.209,6.468 L29.605,6.468 C29.823,6.469 30,6.64 30,6.852 L30,15.802 C30,17.92 28.232,19.638 26.05,19.638 C25.985,19.638 25.932,19.689 25.932,19.753 L25.932,21.067 C25.932,22.267 24.502,22.933 23.539,22.183 L21.041,20.238 C20.542,19.85 19.922,19.638 19.282,19.638 L15.406,19.638 C13.853,19.638 12.594,18.415 12.594,16.906 L12.594,14.516 L9.715,14.516 L5.46,17.888 C5.038,18.222 4.414,17.978 4.329,17.481 L4.32,17.385 L4.241,14.516 L3.488,14.516 C1.624,14.516 0.101,13.105 0.005,11.329 L0,11.15 L0,4.866 C0,3.007 1.562,1.5 3.488,1.5 L13.721,1.5 z M24.748,10.791 L18.508,10.791 C18.176,10.791 17.907,11.052 17.907,11.374 C17.907,11.697 18.176,11.958 18.508,11.958 L18.955,11.958 C19.191,12.64 19.75,13.54 20.781,14.529 C20.012,15.009 18.99,15.525 18.508,15.667 L18.4,15.695 C18.073,15.761 17.864,16.07 17.932,16.385 C18.001,16.701 18.321,16.903 18.648,16.837 C19.288,16.708 20.769,15.965 21.744,15.312 C22.718,15.965 24.199,16.708 24.839,16.837 C25.166,16.903 25.487,16.701 25.555,16.385 C25.624,16.07 25.414,15.761 25.087,15.695 L24.979,15.667 C24.498,15.525 23.475,15.009 22.706,14.529 C23.737,13.54 24.297,12.64 24.532,11.958 L24.748,11.958 C25.08,11.958 25.349,11.697 25.349,11.374 C25.349,11.052 25.08,10.791 24.748,10.791 z M13.721,2.847 L3.488,2.847 C2.332,2.847 1.395,3.751 1.395,4.866 L1.395,11.15 C1.395,12.266 2.332,13.17 3.488,13.17 L4.92,13.17 C5.298,13.17 5.608,13.461 5.618,13.825 L5.677,15.973 L9.023,13.323 C9.123,13.244 9.243,13.193 9.37,13.176 L9.466,13.17 L12.594,13.17 L12.594,9.2 C12.594,7.691 13.853,6.469 15.406,6.468 L15.814,6.468 L15.814,4.866 C15.814,3.751 14.877,2.847 13.721,2.847 z" fill="#F34053"/>
      <path d="M8.614,4.207 C9.151,4.207 9.44,4.452 9.641,5.028 L11.855,11.073 C11.92,11.261 11.956,11.415 11.956,11.558 C11.956,11.9 11.702,12.116 11.318,12.116 C10.958,12.116 10.745,11.94 10.609,11.501 L10.054,9.894 L7.137,9.894 L6.582,11.501 C6.441,11.945 6.24,12.116 5.88,12.116 C5.508,12.116 5.254,11.905 5.254,11.575 C5.254,11.438 5.289,11.29 5.366,11.073 L7.58,5.028 C7.787,4.458 8.076,4.207 8.614,4.207 z M8.631,5.614 L8.566,5.614 L7.456,8.902 L9.735,8.902 L8.631,5.614 z" fill="#F34053"/>
      <path d="M20.351,12.086 C20.657,12.632 21.111,13.213 21.744,13.805 C22.376,13.213 22.83,12.632 23.136,12.086 L23.204,11.958 L21.79,11.958 L21.908,12.215 C22.043,12.509 21.892,12.852 21.58,12.961 C21.309,13.055 21.009,12.939 20.879,12.69 L20.498,11.958 L20.284,11.958 L20.351,12.086" fill="#F34053"/>
    </g>
  </g>
</svg>
