<?xml version="1.0" encoding="UTF-8"?>
<!DOCTYPE svg PUBLIC "-//W3C//DTD SVG 1.1//EN" "http://www.w3.org/Graphics/SVG/1.1/DTD/svg11.dtd">
<svg version="1.1" xmlns="http://www.w3.org/2000/svg" xmlns:xlink="http://www.w3.org/1999/xlink" x="0" y="0" width="40" height="40" viewBox="0, 0, 40, 40">
  <g id="Layer_1">
    <path d="M40,20 C40,25.304 37.893,30.391 34.142,34.142 C30.391,37.893 25.304,40 20,40 C14.696,40 9.609,37.893 5.858,34.142 C2.107,30.391 0,25.304 0,20 C0,14.696 2.107,9.609 5.858,5.858 C9.609,2.107 14.696,0 20,0 C25.304,0 30.391,2.107 34.142,5.858 C37.893,9.609 40,14.696 40,20 L40,20 z M21.25,11.25 C21.25,10.918 21.118,10.601 20.884,10.366 C20.649,10.132 20.331,10 20,10 C19.669,10 19.351,10.132 19.116,10.366 C18.882,10.601 18.75,10.918 18.75,11.25 L18.75,18.75 L11.25,18.75 C10.918,18.75 10.601,18.882 10.366,19.116 C10.132,19.351 10,19.669 10,20 C10,20.331 10.132,20.649 10.366,20.884 C10.601,21.118 10.918,21.25 11.25,21.25 L18.75,21.25 L18.75,28.75 C18.75,29.081 18.882,29.399 19.116,29.634 C19.351,29.868 19.669,30 20,30 C20.331,30 20.649,29.868 20.884,29.634 C21.118,29.399 21.25,29.081 21.25,28.75 L21.25,21.25 L28.75,21.25 C29.081,21.25 29.399,21.118 29.634,20.884 C29.868,20.649 30,20.331 30,20 C30,19.669 29.868,19.351 29.634,19.116 C29.399,18.882 29.081,18.75 28.75,18.75 L21.25,18.75 L21.25,11.25 z" fill="#007AFF"/>
  </g>
</svg>
