<?xml version="1.0" encoding="UTF-8"?>
<!DOCTYPE svg PUBLIC "-//W3C//DTD SVG 1.1//EN" "http://www.w3.org/Graphics/SVG/1.1/DTD/svg11.dtd">
<svg version="1.1" xmlns="http://www.w3.org/2000/svg" xmlns:xlink="http://www.w3.org/1999/xlink" x="0" y="0" width="40" height="40" viewBox="0, 0, 40, 40">
  <defs>
    <clipPath id="Clip_1">
      <path d="M0,0 L40,0 L40,40 L0,40 z"/>
    </clipPath>
  </defs>
  <g id="Layer_1">
    <g clip-path="url(#Clip_1)">
      <path d="M20,37.5 C15.359,37.5 10.908,35.656 7.626,32.374 C4.344,29.093 2.5,24.641 2.5,20 C2.5,15.359 4.344,10.908 7.626,7.626 C10.908,4.344 15.359,2.5 20,2.5 C24.641,2.5 29.093,4.344 32.374,7.626 C35.656,10.908 37.5,15.359 37.5,20 C37.5,24.641 35.656,29.093 32.374,32.374 C29.093,35.656 24.641,37.5 20,37.5 z M20,40 C25.304,40 30.391,37.893 34.142,34.142 C37.893,30.391 40,25.304 40,20 C40,14.696 37.893,9.609 34.142,5.858 C30.391,2.107 25.304,0 20,0 C14.696,0 9.609,2.107 5.858,5.858 C2.107,9.609 0,14.696 0,20 C0,25.304 2.107,30.391 5.858,34.142 C9.609,37.893 14.696,40 20,40 L20,40 z" fill="#007AFF"/>
      <path d="M20,10 C20.331,10 20.649,10.132 20.884,10.366 C21.118,10.601 21.25,10.918 21.25,11.25 L21.25,18.75 L28.75,18.75 C29.081,18.75 29.399,18.882 29.634,19.116 C29.868,19.351 30,19.669 30,20 C30,20.331 29.868,20.649 29.634,20.884 C29.399,21.118 29.081,21.25 28.75,21.25 L21.25,21.25 L21.25,28.75 C21.25,29.081 21.118,29.399 20.884,29.634 C20.649,29.868 20.331,30 20,30 C19.669,30 19.351,29.868 19.116,29.634 C18.882,29.399 18.75,29.081 18.75,28.75 L18.75,21.25 L11.25,21.25 C10.918,21.25 10.601,21.118 10.366,20.884 C10.132,20.649 10,20.331 10,20 C10,19.669 10.132,19.351 10.366,19.116 C10.601,18.882 10.918,18.75 11.25,18.75 L18.75,18.75 L18.75,11.25 C18.75,10.918 18.882,10.601 19.116,10.366 C19.351,10.132 19.669,10 20,10 L20,10 z" fill="#007AFF"/>
    </g>
  </g>
</svg>
