<svg width="28" height="28" viewBox="0 0 28 28" fill="none" xmlns="http://www.w3.org/2000/svg">
<g clip-path="url(#clip0_4_409)">
<path d="M17.4497 10.7345L13.9618 8.90008L10.4739 10.7345L11.1399 6.85021L8.31915 4.09975L12.2184 3.53284L13.9618 0L15.7052 3.53284L19.6044 4.09975L16.7837 6.85021L17.4497 10.7345Z" fill="white"/>
<path d="M26.9259 25.5031V22.1719C26.9259 21.4034 26.2081 20.78 25.3243 20.78H19.8775C19.0514 20.78 18.3727 21.3227 18.2851 22.0198V15.7308C18.2851 14.991 17.5937 14.3907 16.7434 14.3907H11.1791C10.3276 14.3907 9.63737 14.991 9.63737 15.7308V20.2707C9.55325 19.607 8.90568 19.0908 8.11984 19.0908H2.5279C1.68444 19.0908 1 19.6853 1 20.4193V27.9908H10.2654C10.4843 28.0012 10.7793 27.9908 11.1768 27.9908H18.6561C18.8923 28.0208 19.2691 27.9908 19.8752 27.9908H25.3266C25.6031 27.9908 25.8324 27.9908 26.0179 27.9908H26.9213L26.9259 25.5031Z" fill="white"/>
</g>
<defs>
<clipPath id="clip0_4_409">
<rect width="25.9259" height="28" fill="white" transform="translate(1)"/>
</clipPath>
</defs>
</svg>
