<?xml version="1.0" encoding="UTF-8"?>
<!DOCTYPE svg PUBLIC "-//W3C//DTD SVG 1.1//EN" "http://www.w3.org/Graphics/SVG/1.1/DTD/svg11.dtd">
<svg version="1.1" xmlns="http://www.w3.org/2000/svg" xmlns:xlink="http://www.w3.org/1999/xlink" x="0" y="0" width="512" height="512" viewBox="0, 0, 512, 512">
  <g id="Orange_sq">
    <path d="M0,0 L512,0 L512,512 L0,512 L0,0 z" fill="#F47B00" display="none"/>
    <g>
      <path d="M321.364,311.244 C321.364,336.692 291.892,357.326 255.538,357.326 C219.171,357.326 189.704,336.692 189.704,311.244 C189.704,285.808 219.171,265.173 255.538,265.173 C291.892,265.173 321.364,285.808 321.364,311.244" fill="#FFFFFF"/>
      <path d="M321.364,200.647 C321.364,226.095 291.885,246.73 255.53,246.73 C219.163,246.73 189.688,226.095 189.688,200.647 C189.688,175.211 219.163,154.565 255.53,154.565 C291.885,154.565 321.364,175.211 321.364,200.647" fill="#FFFFFF"/>
      <path d="M465.534,255.951 C465.534,281.388 436.059,302.022 399.704,302.022 C363.341,302.022 333.874,281.388 333.874,255.951 C333.874,230.504 363.341,209.869 399.704,209.869 C436.059,209.869 465.534,230.504 465.534,255.951" fill="#FFFFFF"/>
      <path d="M177.194,255.951 C177.194,281.388 147.718,302.022 111.364,302.022 C75.001,302.022 45.534,281.388 45.534,255.951 C45.534,230.504 75.001,209.869 111.364,209.869 C147.718,209.869 177.194,230.504 177.194,255.951" fill="#FFFFFF"/>
    </g>
  </g>
  <g id="Logo" display="none">
    <path d="M0,0 L512,0 L512,512 L0,512 L0,0 z" fill="#FFFFFF"/>
    <path d="M332.007,319.847 C332.007,349.23 297.98,373.054 256.004,373.054 C214.016,373.054 179.993,349.23 179.993,319.847 C179.993,290.479 214.016,266.654 256.004,266.654 C297.98,266.654 332.007,290.479 332.007,319.847" fill="#F37B00"/>
    <path d="M332.007,192.153 C332.007,221.535 297.971,245.359 255.995,245.359 C214.007,245.359 179.975,221.535 179.975,192.153 C179.975,162.784 214.007,138.946 255.995,138.946 C297.971,138.946 332.007,162.784 332.007,192.153" fill="#F37B00"/>
    <path d="M498.466,256.007 C498.466,285.375 464.434,309.2 422.459,309.2 C380.475,309.2 346.452,285.375 346.452,256.007 C346.452,226.625 380.475,202.8 422.459,202.8 C464.434,202.8 498.466,226.625 498.466,256.007" fill="#F37B00"/>
    <path d="M165.548,256.007 C165.548,285.375 131.516,309.2 89.541,309.2 C47.557,309.2 13.534,285.375 13.534,256.007 C13.534,226.625 47.557,202.8 89.541,202.8 C131.516,202.8 165.548,226.625 165.548,256.007" fill="#F37B00"/>
  </g>
</svg>
