<?xml version="1.0" encoding="UTF-8"?>
<!DOCTYPE svg PUBLIC "-//W3C//DTD SVG 1.1//EN" "http://www.w3.org/Graphics/SVG/1.1/DTD/svg11.dtd">
<svg version="1.1" xmlns="http://www.w3.org/2000/svg" xmlns:xlink="http://www.w3.org/1999/xlink" x="0" y="0" width="1920" height="300" viewBox="0, 0, 1920, 300">
  <g id="final_logo" display="none">
    <path d="M386.92,74.696 L388.1,91.622 L374.687,80.902 L366.506,80.902 L366.506,101.521 L379.355,109.702 L335.578,109.702 L348.426,101.521 L348.426,80.902 L340.245,80.902 L326.833,91.622 L328.012,74.696 z" fill="#0A1C9E"/>
    <g>
      <path d="M423.953,79.568 C420.311,79.568 417.34,80.752 415.041,83.12 C412.741,85.488 411.592,88.544 411.592,92.288 C411.592,96.016 412.72,99.004 414.977,101.251 C417.234,103.5 420.225,104.624 423.953,104.624 C427.697,104.624 430.693,103.504 432.942,101.264 C435.189,99.025 436.314,96.032 436.314,92.288 C436.314,88.561 435.16,85.509 432.852,83.133 C430.544,80.756 427.577,79.568 423.953,79.568 M424.466,73.516 C433.322,73.516 441.011,75.482 447.534,79.414 C454.056,83.347 457.318,87.971 457.318,93.288 C457.318,98.23 454.031,102.491 447.457,106.073 C440.883,109.655 433.074,111.445 424.03,111.445 C415.157,111.445 407.36,109.629 400.641,105.996 C393.922,102.363 390.562,98.152 390.562,93.365 C390.562,87.946 393.9,83.283 400.577,79.376 C407.253,75.469 415.216,73.516 424.466,73.516" fill="#0A1C9E"/>
      <path d="M522.765,74.106 L522.765,90.519 C517.362,83.509 509.206,80.004 498.299,80.004 C487.374,80.004 481.911,84.099 481.911,92.289 C481.911,96.392 483.386,99.358 486.335,101.188 C489.285,103.018 494.058,103.932 500.659,103.932 C506.881,103.932 512.066,102.923 516.212,100.905 C520.358,98.889 522.328,96.418 522.123,93.494 C522.123,93.375 522.098,93.212 522.046,93.007 C523.842,94.016 524.74,95.443 524.74,97.29 C524.74,101.53 522.145,104.954 516.956,107.561 C511.767,110.168 504.941,111.471 496.478,111.471 C486.749,111.471 478.372,109.668 471.346,106.06 C464.319,102.453 460.806,98.153 460.806,93.161 C460.806,88.083 464.345,83.54 471.423,79.53 C478.501,75.521 486.528,73.516 495.504,73.516 C503.265,73.516 510.147,74.987 516.148,77.927 z" fill="#0A1C9E"/>
      <path d="M568.105,74.696 L608.984,74.696 L596.135,82.851 L596.135,101.495 L608.984,109.702 L568.105,109.702 L578.031,101.495 L578.031,95.777 L557.745,95.777 L557.745,101.495 L567.669,109.702 L526.817,109.702 L539.666,101.495 L539.666,82.851 L526.817,74.696 L567.669,74.696 L557.745,82.851 L557.745,87.031 L578.031,87.031 L578.031,82.851 z" fill="#0A1C9E"/>
      <path d="M678.432,74.696 L678.432,89.827 L665.302,80.466 L640.606,80.466 L640.606,88.109 L654.172,88.109 L663.815,84.005 L663.815,99.803 L654.172,95.033 L640.606,95.033 L640.606,102.778 L665.302,102.778 L679.458,92.725 L679.458,109.702 L609.677,109.702 L622.526,101.598 L622.526,82.825 L609.677,74.696 z" fill="#0A1C9E"/>
      <path d="M262.026,109.024 C262.026,115.564 254.452,120.867 245.109,120.867 C235.763,120.867 228.19,115.564 228.19,109.024 C228.19,102.487 235.763,97.184 245.109,97.184 C254.452,97.184 262.026,102.487 262.026,109.024" fill="#0A1C9E"/>
      <path d="M262.026,80.601 C262.026,87.141 254.45,92.444 245.107,92.444 C235.761,92.444 228.186,87.141 228.186,80.601 C228.186,74.064 235.761,68.758 245.107,68.758 C254.45,68.758 262.026,74.064 262.026,80.601" fill="#0A1C9E"/>
      <path d="M299.923,94.814 C299.923,101.351 292.348,106.654 283.005,106.654 C273.66,106.654 266.087,101.351 266.087,94.814 C266.087,88.274 273.66,82.971 283.005,82.971 C292.348,82.971 299.923,88.274 299.923,94.814" fill="#0A1C9E"/>
      <path d="M225.821,94.814 C225.821,101.351 218.246,106.654 208.903,106.654 C199.558,106.654 191.985,101.351 191.985,94.814 C191.985,88.274 199.558,82.971 208.903,82.971 C218.246,82.971 225.821,88.274 225.821,94.814" fill="#0A1C9E"/>
    </g>
  </g>
  <g id="Orange_Logo" display="none">
    <path d="M0,0 L1920,0 L1920,300 L0,300 L0,0 z" fill="#FFFFFF"/>
    <path d="M799.856,83.985 L803.728,139.529 L759.712,104.351 L732.865,104.351 L732.865,172.014 L775.03,198.861 L631.372,198.861 L673.534,172.014 L673.534,104.351 L646.687,104.351 L602.674,139.529 L606.543,83.985 z" fill="#F37B00"/>
    <path d="M921.38,99.975 C909.429,99.975 899.679,103.86 892.135,111.631 C884.587,119.402 880.816,129.431 880.816,141.717 C880.816,153.951 884.518,163.756 891.925,171.13 C899.331,178.51 909.146,182.199 921.38,182.199 C933.667,182.199 943.498,178.523 950.878,171.173 C958.252,163.825 961.944,154.003 961.944,141.717 C961.944,129.486 958.157,119.471 950.583,111.674 C943.009,103.874 933.273,99.975 921.38,99.975 M923.064,80.115 C952.125,80.115 977.358,86.566 998.763,99.47 C1020.166,112.376 1030.871,127.55 1030.871,144.999 C1030.871,161.216 1020.084,175.199 998.511,186.954 C976.938,198.708 951.312,204.582 921.633,204.582 C892.515,204.582 866.929,198.623 844.88,186.701 C822.831,174.779 811.804,160.96 811.804,145.251 C811.804,127.468 822.758,112.166 844.67,99.345 C866.578,86.524 892.709,80.115 923.064,80.115" fill="#F37B00"/>
    <path d="M1245.641,82.05 L1245.641,135.91 C1227.911,112.906 1201.146,101.404 1165.353,101.404 C1129.502,101.404 1111.575,114.843 1111.575,141.719 C1111.575,155.183 1116.415,164.916 1126.092,170.922 C1135.773,176.927 1151.436,179.926 1173.098,179.926 C1193.516,179.926 1210.531,176.615 1224.137,169.993 C1237.742,163.377 1244.207,155.269 1243.534,145.673 C1243.534,145.283 1243.452,144.748 1243.281,144.075 C1249.175,147.386 1252.122,152.069 1252.122,158.13 C1252.122,172.044 1243.606,183.28 1226.578,191.835 C1209.55,200.391 1187.15,204.666 1159.378,204.666 C1127.451,204.666 1099.961,198.75 1076.905,186.91 C1053.845,175.073 1042.317,160.962 1042.317,144.58 C1042.317,127.916 1053.93,113.008 1077.157,99.849 C1100.384,86.693 1126.726,80.114 1156.181,80.114 C1181.65,80.114 1204.234,84.941 1223.927,94.589 z" fill="#F37B00"/>
    <path d="M1394.431,83.985 L1528.58,83.985 L1486.415,110.747 L1486.415,171.929 L1528.58,198.861 L1394.431,198.861 L1427.001,171.929 L1427.001,153.164 L1360.434,153.164 L1360.434,171.929 L1393.001,198.861 L1258.938,198.861 L1301.103,171.929 L1301.103,110.747 L1258.938,83.985 L1393.001,83.985 L1360.434,110.747 L1360.434,124.464 L1427.001,124.464 L1427.001,110.747 z" fill="#F37B00"/>
    <path d="M1756.477,83.985 L1756.477,133.639 L1713.39,102.92 L1632.348,102.92 L1632.348,128.001 L1676.866,128.001 L1708.51,114.534 L1708.51,166.376 L1676.866,150.723 L1632.348,150.723 L1632.348,176.139 L1713.39,176.139 L1759.844,143.149 L1759.844,198.861 L1530.851,198.861 L1573.016,172.267 L1573.016,110.661 L1530.851,83.985 z" fill="#F37B00"/>
    <path d="M390.002,196.636 C390.002,218.098 365.148,235.5 334.488,235.5 C303.818,235.5 278.966,218.098 278.966,196.636 C278.966,175.184 303.818,157.782 334.488,157.782 C365.148,157.782 390.002,175.184 390.002,196.636" fill="#F37B00"/>
    <path d="M390.009,103.364 C390.009,124.826 365.147,142.228 334.488,142.228 C303.818,142.228 278.96,124.826 278.96,103.364 C278.96,81.912 303.818,64.5 334.488,64.5 C365.147,64.5 390.009,81.912 390.009,103.364" fill="#F37B00"/>
    <path d="M514.365,150.005 C514.365,171.457 489.507,188.859 458.847,188.859 C428.18,188.859 403.329,171.457 403.329,150.005 C403.329,128.543 428.18,111.141 458.847,111.141 C489.507,111.141 514.365,128.543 514.365,150.005" fill="#F37B00"/>
    <path d="M271.192,150.005 C271.192,171.457 246.334,188.859 215.674,188.859 C185.007,188.859 160.156,171.457 160.156,150.005 C160.156,128.543 185.007,111.141 215.674,111.141 C246.334,111.141 271.192,128.543 271.192,150.005" fill="#F37B00"/>
  </g>
  <g id="Orange_Logo_White">
    <path d="M0,0 L1920,0 L1920,300 L0,300 L0,0 z" fill="#F47B00" display="none"/>
    <path d="M799.856,83.985 L803.728,139.529 L759.712,104.351 L732.865,104.351 L732.865,172.014 L775.03,198.861 L631.372,198.861 L673.534,172.014 L673.534,104.351 L646.687,104.351 L602.674,139.529 L606.543,83.985 z" fill="#FFFFFF"/>
    <path d="M921.38,99.975 C909.429,99.975 899.679,103.86 892.135,111.631 C884.587,119.402 880.816,129.431 880.816,141.717 C880.816,153.951 884.518,163.756 891.925,171.13 C899.331,178.51 909.146,182.199 921.38,182.199 C933.667,182.199 943.498,178.523 950.878,171.173 C958.252,163.825 961.944,154.003 961.944,141.717 C961.944,129.486 958.157,119.471 950.583,111.674 C943.009,103.874 933.273,99.975 921.38,99.975 M923.064,80.115 C952.125,80.115 977.358,86.566 998.763,99.47 C1020.166,112.376 1030.871,127.55 1030.871,144.999 C1030.871,161.216 1020.084,175.199 998.511,186.954 C976.938,198.708 951.312,204.582 921.633,204.582 C892.515,204.582 866.929,198.623 844.88,186.701 C822.831,174.779 811.804,160.96 811.804,145.251 C811.804,127.468 822.758,112.166 844.67,99.345 C866.578,86.524 892.709,80.115 923.064,80.115" fill="#FFFFFF"/>
    <path d="M1245.641,82.05 L1245.641,135.91 C1227.911,112.906 1201.146,101.404 1165.353,101.404 C1129.502,101.404 1111.575,114.843 1111.575,141.719 C1111.575,155.183 1116.415,164.916 1126.092,170.922 C1135.773,176.927 1151.436,179.926 1173.098,179.926 C1193.516,179.926 1210.531,176.615 1224.137,169.993 C1237.742,163.377 1244.207,155.269 1243.534,145.673 C1243.534,145.283 1243.452,144.748 1243.281,144.075 C1249.175,147.386 1252.122,152.069 1252.122,158.13 C1252.122,172.044 1243.606,183.28 1226.578,191.835 C1209.55,200.391 1187.15,204.666 1159.378,204.666 C1127.451,204.666 1099.961,198.75 1076.905,186.91 C1053.845,175.073 1042.317,160.962 1042.317,144.58 C1042.317,127.916 1053.93,113.008 1077.157,99.849 C1100.384,86.693 1126.726,80.114 1156.181,80.114 C1181.65,80.114 1204.234,84.941 1223.927,94.589 z" fill="#FFFFFF"/>
    <path d="M1394.431,83.985 L1528.58,83.985 L1486.415,110.747 L1486.415,171.929 L1528.58,198.861 L1394.431,198.861 L1427.001,171.929 L1427.001,153.164 L1360.434,153.164 L1360.434,171.929 L1393.001,198.861 L1258.938,198.861 L1301.103,171.929 L1301.103,110.747 L1258.938,83.985 L1393.001,83.985 L1360.434,110.747 L1360.434,124.464 L1427.001,124.464 L1427.001,110.747 z" fill="#FFFFFF"/>
    <path d="M1756.477,83.985 L1756.477,133.639 L1713.39,102.92 L1632.348,102.92 L1632.348,128.001 L1676.866,128.001 L1708.51,114.534 L1708.51,166.376 L1676.866,150.723 L1632.348,150.723 L1632.348,176.139 L1713.39,176.139 L1759.844,143.149 L1759.844,198.861 L1530.851,198.861 L1573.016,172.267 L1573.016,110.661 L1530.851,83.985 z" fill="#FFFFFF"/>
    <path d="M390.002,196.636 C390.002,218.098 365.148,235.5 334.488,235.5 C303.818,235.5 278.966,218.098 278.966,196.636 C278.966,175.184 303.818,157.782 334.488,157.782 C365.148,157.782 390.002,175.184 390.002,196.636" fill="#FFFFFF"/>
    <path d="M390.009,103.364 C390.009,124.826 365.147,142.228 334.488,142.228 C303.818,142.228 278.96,124.826 278.96,103.364 C278.96,81.912 303.818,64.5 334.488,64.5 C365.147,64.5 390.009,81.912 390.009,103.364" fill="#FFFFFF"/>
    <path d="M514.365,150.005 C514.365,171.457 489.507,188.859 458.847,188.859 C428.18,188.859 403.329,171.457 403.329,150.005 C403.329,128.543 428.18,111.141 458.847,111.141 C489.507,111.141 514.365,128.543 514.365,150.005" fill="#FFFFFF"/>
    <path d="M271.192,150.005 C271.192,171.457 246.334,188.859 215.674,188.859 C185.007,188.859 160.156,171.457 160.156,150.005 C160.156,128.543 185.007,111.141 215.674,111.141 C246.334,111.141 271.192,128.543 271.192,150.005" fill="#FFFFFF"/>
  </g>
</svg>
