<?xml version="1.0" encoding="UTF-8"?>
<!DOCTYPE svg PUBLIC "-//W3C//DTD SVG 1.1//EN" "http://www.w3.org/Graphics/SVG/1.1/DTD/svg11.dtd">
<svg version="1.1" xmlns="http://www.w3.org/2000/svg" xmlns:xlink="http://www.w3.org/1999/xlink" x="0" y="0" width="50" height="50" viewBox="0, 0, 50, 50">
  <g id="Layer_1">
    <path d="M25,50 C11.193,50 0,38.807 0,25 C0,11.193 11.193,0 25,0 C38.807,0 50,11.193 50,25 C50,38.807 38.807,50 25,50 z" fill="#F6F6F4"/>
    <g>
      <path d="M10.023,24.572 L16.876,18.572 L30.579,19.428 L31.436,33.143 L25.441,40 C25.441,40 25.442,34.858 20.301,29.715 C15.161,24.571 10.023,24.572 10.023,24.572 z" fill="#A0041E"/>
      <path d="M10,40 C10,40 9.969,33.161 12.557,30.572 C15.144,27.982 22.014,28.16 22.014,28.16 C22.014,28.16 22.013,34.857 19.443,37.428 C16.875,40 10,40 10,40 L10,40 z" fill="#FFAC33"/>
      <path d="M16.875,36.572 C18.767,36.572 20.3,35.036 20.3,33.143 C20.3,31.249 18.767,29.715 16.875,29.715 C14.982,29.715 13.448,31.249 13.448,33.143 C13.448,35.036 14.982,36.572 16.875,36.572 z" fill="#FFCC4D"/>
      <path d="M40,10 C40,10 31.435,10 21.157,18.572 C16.018,22.857 16.018,30.572 17.731,32.285 C19.443,34 27.153,34 31.435,28.857 C40,18.572 40,10 40,10 z" fill="#55ACEE"/>
      <path d="M32.292,14.285 C30.902,14.285 29.711,15.118 29.173,16.308 C29.603,16.114 30.077,16 30.578,16 C32.47,16 34.005,17.536 34.005,19.428 C34.005,19.931 33.89,20.404 33.697,20.835 C34.887,20.297 35.717,19.105 35.717,17.715 C35.717,15.821 34.184,14.285 32.292,14.285 L32.292,14.285 z" fill="#000000"/>
      <path d="M16.019,34 C16.019,34 16.019,30.572 16.876,29.715 C17.732,28.857 28.01,20.286 28.866,21.143 C29.722,21.999 21.157,32.285 20.3,33.143 C19.443,34 16.019,34 16.019,34 z" fill="#A0041E"/>
    </g>
  </g>
</svg>
