<svg width="30" height="30" viewBox="0 0 30 30" fill="none" xmlns="http://www.w3.org/2000/svg">
<path d="M13.2321 7.74496H16.5436C16.6432 7.58456 16.672 7.37631 16.5943 7.1798L13.233 3.22876V7.74496H13.2321Z" fill="#B78B60"/>
<path d="M10.459 18.5921C10.4092 18.299 10.3507 18.0219 10.279 17.775C9.73714 15.9082 9.28268 15.118 9.4767 13.1614C9.73015 11.8312 9.71529 9.16162 13.3947 9.5773C14.3665 9.68731 15.8794 10.3558 16.7455 10.3415C17.241 10.3331 17.6019 9.36988 17.6343 9.04909C17.6789 8.60738 16.8783 7.85664 16.5436 7.74412C16.2088 7.63159 14.7852 7.21423 14.2005 7.05216C13.2924 6.79939 13.3396 5.62038 13.2819 5.2005C13.2548 5.00316 13.3554 4.80833 13.5389 4.7042C13.7224 4.60007 13.8666 4.69749 14.0449 4.80917L14.8184 5.35333C15.2527 5.71107 14.0545 6.39463 14.3788 6.50884C14.3788 6.50884 15.9126 7.06223 16.5698 7.17728C16.9299 7.24026 18.1726 5.8933 18.2452 5.10309C18.302 4.48167 15.2755 1.67437 13.1176 0.58437C12.359 0.201442 11.9142 -0.0210925 11.4143 0.00158087C10.8174 0.028453 10.6295 0.255187 9.88659 0.866528C6.52445 3.63016 3.26106 9.60669 2.78213 10.9293C0.819209 16.355 0.512447 19.2135 0.44253 20.8283C0.399706 21.3238 0.376109 21.8167 0.376109 22.3046C0.432917 22.3046 -0.497855 26.5034 0.376109 27.3431C1.25007 28.1829 5.03084 28.1829 5.03084 28.1829C13.7705 31.5327 30 30.6585 30 22.109C30 11.8875 13.5581 13.2437 10.459 18.5921V18.5921Z" fill="#D4AB88"/>
<path d="M17.2987 26.8225C14.5369 26.5437 12.38 25.2429 12.2585 25.1682C11.8521 24.9188 11.7333 24.4015 11.992 24.0102C12.2507 23.6188 12.7899 23.5038 13.198 23.7515C13.233 23.7725 16.6965 25.8442 20.0552 24.9834C21.9123 24.5081 23.4348 23.2074 24.5797 21.1197C24.8052 20.7082 25.3365 20.552 25.7604 20.7679C26.1869 20.9837 26.3512 21.4917 26.1266 21.9024C24.7414 24.4267 22.8457 26.0113 20.4921 26.61C19.3936 26.8888 18.3055 26.9241 17.2987 26.8225Z" fill="#B78B60"/>
</svg>
