<?xml version="1.0" encoding="UTF-8"?>
<!DOCTYPE svg PUBLIC "-//W3C//DTD SVG 1.1//EN" "http://www.w3.org/Graphics/SVG/1.1/DTD/svg11.dtd">
<svg version="1.1" xmlns="http://www.w3.org/2000/svg" xmlns:xlink="http://www.w3.org/1999/xlink" x="0" y="0" width="50" height="50" viewBox="0, 0, 50, 50">
  <g id="Layer_1">
    <path d="M25,50 C11.193,50 -0,38.807 -0,25 C-0,11.193 11.193,-0 25,-0 C38.807,-0 50,11.193 50,25 C50,38.807 38.807,50 25,50 z" fill="#FFFFFF"/>
    <g>
      <path d="M25,18.417 L19.167,11.75 L10,11.75 L21.667,25.917 L31.267,21.958 L25,18.417 z" fill="#55ACEE"/>
      <path d="M30.833,11.75 L25,18.417 L29.492,24.51 L30.514,23.269 L40,11.75 L30.833,11.75 z" fill="#3B88C3"/>
      <path d="M29.383,25.105 C29.45,24.924 29.493,24.732 29.493,24.528 C29.493,23.608 28.746,22.861 27.826,22.861 L22.27,22.861 C21.349,22.861 20.603,23.608 20.603,24.528 C20.603,24.732 20.645,24.924 20.712,25.105 C17.997,26.627 16.159,29.528 16.159,32.861 C16.159,37.77 20.138,41.75 25.048,41.75 C29.958,41.75 33.938,37.77 33.938,32.861 C33.937,29.528 32.099,26.627 29.383,25.105 L29.383,25.105 z" fill="#FFAC33"/>
      <path d="M25.048,39.528 C28.73,39.528 31.715,36.543 31.715,32.861 C31.715,29.179 28.73,26.194 25.048,26.194 C21.367,26.194 18.382,29.179 18.382,32.861 C18.382,36.543 21.367,39.528 25.048,39.528 z" fill="#FFD983"/>
      <path d="M27.732,37.278 C27.613,37.278 27.495,37.242 27.393,37.169 L25,35.453 L22.608,37.169 C22.403,37.315 22.13,37.315 21.927,37.167 C21.725,37.02 21.64,36.759 21.715,36.522 L22.608,33.642 L20.237,31.971 C20.035,31.823 19.952,31.561 20.028,31.323 C20.106,31.085 20.327,30.923 20.577,30.922 L23.514,30.918 L24.449,28.109 C24.528,27.872 24.75,27.712 25.001,27.712 C25.251,27.712 25.473,27.872 25.552,28.109 L26.472,30.918 L29.423,30.922 C29.674,30.923 29.896,31.085 29.972,31.323 C30.05,31.561 29.966,31.822 29.764,31.971 L27.392,33.642 L28.285,36.522 C28.362,36.76 28.275,37.02 28.073,37.167 C27.971,37.242 27.851,37.278 27.732,37.278 z" fill="#FFAC33"/>
    </g>
  </g>
</svg>
