<svg width="30" height="30" viewBox="0 0 30 30" fill="none" xmlns="http://www.w3.org/2000/svg">
<path d="M15 6.66667L9.16667 0H0L11.6667 14.1667L21.2675 10.2083L15 6.66667Z" fill="#55ACEE"/>
<path d="M20.8333 0L15 6.66667L19.4917 12.76L20.5142 11.5192L30 0H20.8333Z" fill="#3B88C3"/>
<path d="M19.3833 13.355C19.45 13.1742 19.4925 12.9817 19.4925 12.7775C19.4925 11.8575 18.7458 11.1108 17.8258 11.1108H12.27C11.3491 11.1108 10.6033 11.8575 10.6033 12.7775C10.6033 12.9817 10.645 13.1742 10.7125 13.355C7.99748 14.8767 6.15915 17.7775 6.15915 21.1108C6.15915 26.02 10.1383 30 15.0483 30C19.9575 30 23.9375 26.02 23.9375 21.1108C23.9366 17.7775 22.0992 14.8767 19.3833 13.355V13.355Z" fill="#FFAC33"/>
<path d="M15.0484 27.7775C18.7302 27.7775 21.715 24.7927 21.715 21.1108C21.715 17.4289 18.7302 14.4442 15.0484 14.4442C11.3665 14.4442 8.38168 17.4289 8.38168 21.1108C8.38168 24.7927 11.3665 27.7775 15.0484 27.7775Z" fill="#FFD983"/>
<path d="M17.7317 25.5283C17.6133 25.5283 17.495 25.4917 17.3933 25.4192L15 23.7033L12.6075 25.4192C12.4033 25.565 12.13 25.565 11.9275 25.4167C11.725 25.27 11.64 25.0092 11.715 24.7717L12.6075 21.8917L10.2367 20.2208C10.035 20.0725 9.95167 19.8108 10.0283 19.5725C10.1058 19.335 10.3267 19.1733 10.5775 19.1717L13.5142 19.1675L14.4492 16.3592C14.5283 16.1217 14.75 15.9617 15.0008 15.9617C15.2508 15.9617 15.4733 16.1217 15.5525 16.3592L16.4717 19.1675L19.4233 19.1717C19.6742 19.1733 19.8958 19.335 19.9725 19.5725C20.05 19.8108 19.9658 20.0717 19.7642 20.2208L17.3925 21.8917L18.285 24.7717C18.3617 25.01 18.275 25.27 18.0733 25.4167C17.9708 25.4917 17.8508 25.5283 17.7317 25.5283Z" fill="#FFAC33"/>
</svg>
